<?xml version="1.0" standalone="no"?>
<!DOCTYPE svg PUBLIC "-//W3C//DTD SVG 20010904//EN"
 "http://www.w3.org/TR/2001/REC-SVG-20010904/DTD/svg10.dtd">
<svg version="1.0" xmlns="http://www.w3.org/2000/svg"
 width="700.000000pt" height="700.000000pt" viewBox="0 0 700.000000 700.000000"
 preserveAspectRatio="xMidYMid meet">
<metadata>
Created by potrace 1.14, written by Peter Selinger 2001-2017
</metadata>
<g transform="translate(0.000000,700.000000) scale(0.100000,-0.100000)"
fill="#000000" stroke="none">
<path d="M3277 6494 c-1 -1 -56 -4 -122 -8 -66 -3 -134 -8 -150 -10 -17 -2
-50 -7 -75 -10 -49 -6 -93 -13 -126 -21 -12 -3 -39 -7 -60 -10 -21 -4 -57 -11
-79 -17 -22 -5 -51 -12 -65 -15 -61 -11 -360 -117 -469 -167 -248 -112 -486
-263 -686 -436 -38 -33 -230 -224 -276 -275 -58 -64 -182 -233 -238 -323 -178
-286 -295 -586 -350 -897 -28 -159 -30 -174 -37 -340 -4 -82 -8 -152 -10 -154
-2 -2 -17 8 -34 22 -16 14 -38 28 -47 31 -17 5 -18 42 -17 608 1 332 2 606 3
610 1 4 17 15 36 24 47 22 101 79 133 139 22 42 26 63 27 136 0 72 -4 93 -25
134 -87 172 -301 231 -455 126 -125 -85 -173 -251 -112 -385 28 -61 99 -136
146 -156 l31 -12 0 -609 0 -609 -38 -19 c-52 -27 -96 -76 -126 -141 l-26 -55
0 -397 c1 -455 1 -457 82 -540 82 -85 187 -114 295 -83 32 9 72 28 90 41 17
13 34 24 37 24 3 0 7 -260 8 -577 l3 -578 32 -67 c53 -113 168 -212 283 -245
14 -4 359 -9 768 -10 l743 -3 -6 -33 c-12 -73 -12 -113 2 -190 40 -231 207
-411 438 -473 52 -14 143 -16 690 -17 552 0 639 2 699 17 225 54 407 250 441
477 9 58 9 147 0 187 l-7 32 724 1 c398 0 736 3 751 5 138 23 273 134 329 271
l23 58 3 573 c1 314 7 572 11 572 5 0 14 -6 20 -14 24 -29 104 -58 170 -61
118 -6 218 51 276 156 l30 54 3 405 c2 373 1 409 -16 453 -24 62 -83 132 -133
157 l-39 20 0 608 0 607 51 30 c93 55 152 156 153 260 0 255 -275 405 -487
264 -165 -109 -183 -350 -35 -484 24 -22 57 -47 73 -55 l30 -16 0 -603 0 -603
-50 -33 c-27 -19 -50 -33 -51 -32 -1 1 -4 70 -8 152 -24 594 -256 1149 -672
1609 -302 335 -704 601 -1139 753 -38 13 -77 26 -85 28 -8 3 -46 14 -85 25
-82 25 -263 66 -323 74 -83 12 -122 17 -154 21 -82 11 -243 17 -472 19 -136 0
-248 0 -249 0z m-773 -2348 c163 -49 278 -117 391 -231 108 -109 171 -211 219
-355 31 -95 39 -143 40 -255 2 -167 -23 -282 -89 -417 -48 -96 -89 -153 -169
-234 -119 -120 -251 -195 -420 -239 -79 -20 -110 -23 -231 -21 -158 4 -259 28
-383 90 -246 124 -445 388 -478 635 -3 25 -8 49 -10 53 -7 10 -5 208 1 238 3
14 7 37 10 52 3 15 16 63 30 105 88 277 338 511 624 583 103 26 118 27 256 25
96 -2 138 -8 209 -29z m2421 15 c181 -42 312 -116 446 -251 173 -173 260 -383
260 -626 0 -399 -259 -744 -646 -860 -78 -23 -109 -27 -230 -28 -158 -1 -194
4 -312 44 -225 75 -428 263 -526 487 -111 253 -92 581 46 808 130 213 358 381
574 421 15 3 46 9 68 13 56 11 260 6 320 -8z"/>
<path d="M2191 3877 c-46 -14 -108 -79 -121 -126 -5 -20 -10 -93 -10 -163 0
-115 -2 -128 -17 -129 -10 0 -75 -1 -144 -2 -121 -2 -128 -3 -174 -32 -110
-68 -129 -219 -39 -308 54 -54 77 -60 231 -61 l143 -1 0 -136 c0 -125 2 -139
26 -187 42 -84 135 -126 225 -102 60 16 103 51 129 106 20 40 23 62 23 180 0
74 3 134 6 135 3 0 67 2 141 3 171 3 217 23 263 111 36 72 23 168 -32 228 -46
51 -82 60 -236 62 l-140 2 -2 141 c-1 109 -5 148 -19 174 -49 97 -148 138
-253 105z"/>
<path d="M4230 3443 c-19 -8 -52 -32 -72 -54 -89 -97 -62 -249 57 -312 39 -21
52 -21 495 -23 250 0 474 2 498 6 187 32 222 286 52 376 -33 18 -68 19 -515
20 -392 1 -486 -2 -515 -13z"/>
</g>
</svg>
